# xmcd CD database file
#
# Track frame offsets:
#	150
#	15965
#	34065
#	54280
#	69827
#	85307
#	101695
#	121320
#	141397
#	159675
#	175220
#
# Disc length: 2541 seconds
#
# Revision: 1
# Processed by: cddbd v1.4PL0 Copyright (c) Steve Scherf et al.
# Submitted via: CDex 1.50Beta6
#
DISCID=8809eb0b
DTITLE=Doc Walker - Curve
DYEAR=2002
DGENRE=Country
TTITLE0=Whoever Made Those Rules
TTITLE1=Dreaming Out Loud
TTITLE2=Rocket Girl
TTITLE3=She Hasn't Always Been This Way
TTITLE4=Boston
TTITLE5=Lonesome On'ry and Mean
TTITLE6=Call Me A Fool
TTITLE7=I'm Just Waiting
TTITLE8=Son Of Daniel
TTITLE9=You Can Do That To Me
TTITLE10=That's Just Me
EXTD=YEAR: 2002
EXTT0=
EXTT1=
EXTT2=
EXTT3=
EXTT4=
EXTT5=
EXTT6=
EXTT7=
EXTT8=
EXTT9=
EXTT10=
PLAYORDER=
